<svg width="1200" height="720" viewBox="0 0 1200 720" fill="none" xmlns="http://www.w3.org/2000/svg">
  <rect width="1200" height="720" rx="32" fill="#F8FAFC"></rect>

  <defs>
    <filter id="shadow" x="-20%" y="-20%" width="140%" height="140%">
      <feDropShadow dx="0" dy="18" stdDeviation="18" flood-color="#0F172A" flood-opacity="0.10"></feDropShadow>
    </filter>
    <linearGradient id="blue" x1="0" y1="0" x2="1" y2="1">
      <stop stop-color="#2563EB"></stop>
      <stop offset="1" stop-color="#60A5FA"></stop>
    </linearGradient>
  </defs>

  <text x="600" y="70" text-anchor="middle" font-family="Inter, Arial" font-size="34" font-weight="800" fill="#0F172A">
    Consolider les sources pour révéler les angles morts
  </text>

  <text x="600" y="108" text-anchor="middle" font-family="Inter, Arial" font-size="18" fill="#64748B">
    Aucun référentiel ne possède seul une vision complète du patrimoine
  </text>

  <g filter="url(#shadow)">
    <rect x="80" y="210" width="190" height="86" rx="22" fill="white" stroke="#DBEAFE"></rect>
    <text x="175" y="245" text-anchor="middle" font-family="Inter, Arial" font-size="18" font-weight="800" fill="#0F172A">CMDB</text>
    <text x="175" y="272" text-anchor="middle" font-family="Inter, Arial" font-size="14" fill="#64748B">Actifs déclarés</text>

    <rect x="80" y="330" width="190" height="86" rx="22" fill="white" stroke="#DBEAFE"></rect>
    <text x="175" y="365" text-anchor="middle" font-family="Inter, Arial" font-size="18" font-weight="800" fill="#0F172A">Scanner VM</text>
    <text x="175" y="392" text-anchor="middle" font-family="Inter, Arial" font-size="14" fill="#64748B">Actifs accessibles</text>

    <rect x="80" y="450" width="190" height="86" rx="22" fill="white" stroke="#DBEAFE"></rect>
    <text x="175" y="485" text-anchor="middle" font-family="Inter, Arial" font-size="18" font-weight="800" fill="#0F172A">EDR</text>
    <text x="175" y="512" text-anchor="middle" font-family="Inter, Arial" font-size="14" fill="#64748B">Machines protégées</text>

    <rect x="930" y="210" width="190" height="86" rx="22" fill="white" stroke="#DBEAFE"></rect>
    <text x="1025" y="245" text-anchor="middle" font-family="Inter, Arial" font-size="18" font-weight="800" fill="#0F172A">DHCP</text>
    <text x="1025" y="272" text-anchor="middle" font-family="Inter, Arial" font-size="14" fill="#64748B">Équipements vus</text>

    <rect x="930" y="330" width="190" height="86" rx="22" fill="white" stroke="#DBEAFE"></rect>
    <text x="1025" y="365" text-anchor="middle" font-family="Inter, Arial" font-size="18" font-weight="800" fill="#0F172A">Cloud</text>
    <text x="1025" y="392" text-anchor="middle" font-family="Inter, Arial" font-size="14" fill="#64748B">Ressources éphémères</text>

    <rect x="930" y="450" width="190" height="86" rx="22" fill="white" stroke="#DBEAFE"></rect>
    <text x="1025" y="485" text-anchor="middle" font-family="Inter, Arial" font-size="18" font-weight="800" fill="#0F172A">Discovery</text>
    <text x="1025" y="512" text-anchor="middle" font-family="Inter, Arial" font-size="14" fill="#64748B">Présence réseau</text>

    <rect x="410" y="260" width="380" height="220" rx="32" fill="url(#blue)"></rect>
    <text x="600" y="340" text-anchor="middle" font-family="Inter, Arial" font-size="30" font-weight="900" fill="white">Inventaire sécurité</text>
    <text x="600" y="375" text-anchor="middle" font-family="Inter, Arial" font-size="17" fill="#DBEAFE">Vue consolidée du patrimoine réel</text>
    <text x="600" y="420" text-anchor="middle" font-family="Inter, Arial" font-size="15" fill="#EFF6FF">Identifier • Qualifier • Prioriser • Remédier</text>
  </g>

  <g stroke="#2563EB" stroke-width="4" stroke-linecap="round">
    <path d="M275 253H390"></path>
    <path d="M275 373H390"></path>
    <path d="M275 493H390"></path>
    <path d="M810 253H925"></path>
    <path d="M810 373H925"></path>
    <path d="M810 493H925"></path>
  </g>

  <g stroke="#2563EB" stroke-width="4" stroke-linecap="round" stroke-linejoin="round">
    <path d="M380 243L390 253L380 263"></path>
    <path d="M380 363L390 373L380 383"></path>
    <path d="M380 483L390 493L380 503"></path>
    <path d="M820 243L810 253L820 263"></path>
    <path d="M820 363L810 373L820 383"></path>
    <path d="M820 483L810 493L820 503"></path>
  </g>
</svg>